<svg xmlns="http://www.w3.org/2000/svg" width="420" height="420" viewBox="0 0 420 420">
  <g id="Group_85" data-name="Group 85" transform="translate(-0.5 0)">
    <rect id="Rectangle_11" data-name="Rectangle 11" width="420" height="420" transform="translate(0.5 0)" fill="#ef3e45"/>
    <g id="Projet_de_fin_d_études" data-name="Projet de fin d études" transform="translate(54.952 277.836)" style="isolation: isolate">
      <g id="Group_84" data-name="Group 84" transform="translate(0)" style="isolation: isolate">
        <path id="Path_110" data-name="Path 110" d="M-69.766,523.578V498.726h7.1a8.763,8.763,0,0,1,4.113.773,6.759,6.759,0,0,1,3.937,6.047,7.085,7.085,0,0,1-3.375,5.975c-2.285,1.442-5.2,1.511-7.241,1.511h-1.3v10.546Zm3.234-10.968,1.653-2.214a8.265,8.265,0,0,0,4.71-.914,4.557,4.557,0,0,0,2.074-3.867c0-3.339-2.566-4.359-5.062-4.359h-3.374Z" transform="translate(69.766 -498.339)" fill="#fff"/>
        <path id="Path_111" data-name="Path 111" d="M-37.56,528.42h-3.059V511.055h3.059v2.6l1.617-2.32a7.733,7.733,0,0,1,3.093-.633,4.611,4.611,0,0,1,1.933.352v2.812a6.143,6.143,0,0,0-2.742-.668,7,7,0,0,0-3.9,1.371Z" transform="translate(57.983 -503.181)" fill="#fff"/>
        <path id="Path_112" data-name="Path 112" d="M-14.787,528.794c-4.886,0-8.015-3.374-8.015-8.823,0-5.308,3.094-9.385,8.261-9.385,4.711,0,7.874,3.55,7.874,9S-9.761,528.794-14.787,528.794Zm4.957-9.139c0-3.128-1.266-6.714-4.852-6.714-2.988,0-4.921,2.6-4.921,6.82a8.249,8.249,0,0,0,1.161,4.675,4.48,4.48,0,0,0,3.691,2C-11.272,526.439-9.83,522.854-9.83,519.655Z" transform="translate(50.781 -503.133)" fill="#fff"/>
        <path id="Path_113" data-name="Path 113" d="M11.065,501.521a1.722,1.722,0,1,1,1.722-1.722A1.724,1.724,0,0,1,11.065,501.521Zm1.546,4.43V528.8l-2.988,1.828V505.951Z" transform="translate(37.758 -498.076)" fill="#fff"/>
        <path id="Path_114" data-name="Path 114" d="M33.145,528.232a12.087,12.087,0,0,1-3.8.562c-5.2,0-9.14-2.988-9.14-9.069,0-5.414,3.339-9.139,7.98-9.139a6.705,6.705,0,0,1,5.589,2.636c1.477,2.039,1.547,4.851,1.582,6.257H23.407a7.316,7.316,0,0,0,1.547,5.027,6.856,6.856,0,0,0,5.1,1.863,13.067,13.067,0,0,0,4.746-.984Zm-1.02-11.037A4.745,4.745,0,0,0,31,514.066a3.992,3.992,0,0,0-2.883-1.125c-2.074,0-3.866,1.371-4.5,4.254Z" transform="translate(33.394 -503.133)" fill="#fff"/>
        <path id="Path_115" data-name="Path 115" d="M55.177,525.912a7.141,7.141,0,0,1-1.547.21,3.934,3.934,0,0,1-3.163-1.336c-.844-1.019-.844-2-.844-3.866V510.515H47.584l1.651-2.215h.387v-3.374l3.023-.949V508.3h3.586v2.215H52.645v9a14.663,14.663,0,0,0,.07,2.5A1.985,1.985,0,0,0,54.86,523.8a5.689,5.689,0,0,0,2.109-.492Z" transform="translate(22.327 -500.461)" fill="#fff"/>
        <path id="Path_116" data-name="Path 116" d="M97.469,523.6H94.48v-2.425L92.863,523.6a8.007,8.007,0,0,1-2.706.422c-5.694,0-8.471-3.726-8.471-8.788,0-4.921,2.988-9.42,8.4-9.42a9.592,9.592,0,0,1,4.394,1.054v-8.085h2.988ZM94.48,509.365a8.078,8.078,0,0,0-3.937-1.09,5.135,5.135,0,0,0-3.34,1.16c-1.722,1.371-2.32,3.656-2.32,5.906,0,3.972,2.214,6.257,5.589,6.257a9.58,9.58,0,0,0,4.007-.949Z" transform="translate(8.541 -498.362)" fill="#fff"/>
        <path id="Path_117" data-name="Path 117" d="M126.6,528.232a12.084,12.084,0,0,1-3.8.562c-5.2,0-9.14-2.988-9.14-9.069,0-5.414,3.34-9.139,7.98-9.139a6.705,6.705,0,0,1,5.589,2.636c1.477,2.039,1.547,4.851,1.582,6.257H116.861a7.316,7.316,0,0,0,1.547,5.027,6.857,6.857,0,0,0,5.1,1.863,13.066,13.066,0,0,0,4.745-.984Zm-1.02-11.037a4.745,4.745,0,0,0-1.125-3.129,3.992,3.992,0,0,0-2.883-1.125c-2.074,0-3.866,1.371-4.5,4.254Z" transform="translate(-4.386 -503.133)" fill="#fff"/>
        <path id="Path_118" data-name="Path 118" d="M163.764,523.315h-2.953V508.13h-2.074l1.653-2.215h.422v-2.39c0-3.163,1.441-5.449,5.272-5.449a7.677,7.677,0,0,1,1.828.246v2.391a4.84,4.84,0,0,0-1.582-.316c-2.144,0-2.566,1.547-2.566,3.62v1.9h3.515v2.215h-3.515Z" transform="translate(-22.608 -498.076)" fill="#fff"/>
        <path id="Path_119" data-name="Path 119" d="M179.988,499.8a1.7,1.7,0,0,1-1.687,1.722,1.718,1.718,0,0,1-1.687-1.722,1.688,1.688,0,1,1,3.374,0Zm-.176,23.516h-2.988V505.951h2.988Z" transform="translate(-29.834 -498.076)" fill="#fff"/>
        <path id="Path_120" data-name="Path 120" d="M189.239,528.373V511.008h2.988v2.812l1.828-2.636a11.565,11.565,0,0,1,3.726-.6,6.742,6.742,0,0,1,4.359,1.441c1.757,1.511,1.793,3.339,1.793,4.956v11.389H200.91V518.214c0-2.988-.527-5.167-4.077-5.167a8.689,8.689,0,0,0-4.605,1.441v13.885Z" transform="translate(-34.938 -503.133)" fill="#fff"/>
        <path id="Path_121" data-name="Path 121" d="M252.4,523.6h-2.988v-2.425l-1.617,2.425a8.007,8.007,0,0,1-2.706.422c-5.695,0-8.472-3.726-8.472-8.788,0-4.921,2.988-9.42,8.4-9.42a9.594,9.594,0,0,1,4.394,1.054v-8.085H252.4Zm-2.988-14.237a8.078,8.078,0,0,0-3.937-1.09,5.134,5.134,0,0,0-3.339,1.16c-1.723,1.371-2.32,3.656-2.32,5.906,0,3.972,2.214,6.257,5.589,6.257a9.581,9.581,0,0,0,4.008-.949Z" transform="translate(-54.09 -498.362)" fill="#fff"/>
        <path id="Path_122" data-name="Path 122" d="M269.829,505.287h-2l2.6-6.5h2.848Z" transform="translate(-66.707 -498.362)" fill="#fff"/>
        <path id="Path_123" data-name="Path 123" d="M293.8,523.652a12.085,12.085,0,0,1-3.8.562c-5.2,0-9.14-2.988-9.14-9.069,0-5.414,3.34-9.139,7.98-9.139a6.707,6.707,0,0,1,5.589,2.636c1.476,2.039,1.546,4.851,1.582,6.257H284.064a7.317,7.317,0,0,0,1.547,5.027,6.855,6.855,0,0,0,5.1,1.863,13.076,13.076,0,0,0,4.746-.984Zm-1.019-11.037a4.747,4.747,0,0,0-1.125-3.129,3.989,3.989,0,0,0-2.882-1.125c-2.074,0-3.868,1.371-4.5,4.254Zm-6.292-8.472v-2.355l6.573-2.531v2.319Z" transform="translate(-71.979 -498.553)" fill="#fff"/>
        <path id="Path_124" data-name="Path 124" d="M315.833,525.912a7.14,7.14,0,0,1-1.546.21,3.933,3.933,0,0,1-3.164-1.336c-.844-1.019-.844-2-.844-3.866V510.515H308.24l1.653-2.215h.386v-3.374l3.023-.949V508.3h3.586v2.215H313.3v9a14.66,14.66,0,0,0,.07,2.5,1.985,1.985,0,0,0,2.144,1.793,5.691,5.691,0,0,0,2.109-.492Z" transform="translate(-83.045 -500.461)" fill="#fff"/>
        <path id="Path_125" data-name="Path 125" d="M341.636,528.635h-2.988v-2.812l-1.828,2.636a12.06,12.06,0,0,1-3.725.6c-4.606,0-6.152-2.812-6.152-6.257V511.234h3.023V521.71c0,2.742.562,4.887,4.077,4.887a8.723,8.723,0,0,0,4.605-1.442V511.234h2.988Z" transform="translate(-90.606 -503.395)" fill="#fff"/>
        <path id="Path_126" data-name="Path 126" d="M372.875,523.6h-2.988v-2.425L368.27,523.6a8.01,8.01,0,0,1-2.706.422c-5.695,0-8.471-3.726-8.471-8.788,0-4.921,2.988-9.42,8.4-9.42a9.592,9.592,0,0,1,4.394,1.054v-8.085h2.988Zm-2.988-14.237a8.078,8.078,0,0,0-3.937-1.09,5.137,5.137,0,0,0-3.34,1.16c-1.722,1.371-2.32,3.656-2.32,5.906,0,3.972,2.215,6.257,5.589,6.257a9.58,9.58,0,0,0,4.007-.949Z" transform="translate(-102.794 -498.362)" fill="#fff"/>
        <path id="Path_127" data-name="Path 127" d="M402.005,528.232a12.083,12.083,0,0,1-3.8.562c-5.2,0-9.14-2.988-9.14-9.069,0-5.414,3.34-9.139,7.98-9.139a6.706,6.706,0,0,1,5.589,2.636c1.476,2.039,1.546,4.851,1.582,6.257H392.268a7.317,7.317,0,0,0,1.547,5.027,6.855,6.855,0,0,0,5.1,1.863,13.076,13.076,0,0,0,4.746-.984Zm-1.019-11.037a4.749,4.749,0,0,0-1.125-3.129,3.992,3.992,0,0,0-2.882-1.125c-2.074,0-3.868,1.371-4.5,4.254Z" transform="translate(-115.721 -503.133)" fill="#fff"/>
        <path id="Path_128" data-name="Path 128" d="M424.785,518.671c1.616.773,3.726,1.793,3.726,4.781,0,2.883-2.25,5.343-6.081,5.343a11.746,11.746,0,0,1-4.745-1.124v-2.777a9.818,9.818,0,0,0,1.687.914,7.474,7.474,0,0,0,2.742.633,2.913,2.913,0,0,0,3.234-2.812c0-1.828-1.582-2.46-2.707-2.918l-1.2-.422c-1.265-.527-3.691-1.511-3.691-4.57,0-2.988,2.5-5.132,5.906-5.132a8.659,8.659,0,0,1,4.007.984v2.672a5.367,5.367,0,0,0-3.585-1.371c-2.32,0-3.2,1.406-3.2,2.671,0,1.441,1.23,2,2.285,2.461Z" transform="translate(-127.288 -503.133)" fill="#fff"/>
      </g>
    </g>
    <g id="Group_16" data-name="Group 16" transform="translate(43.142 109.44)">
      <path id="Path_57" data-name="Path 57" d="M-19.684,215.411c29.145,0,45.885,12.405,45.885,37.614,0,32.1-22.451,52.384-59.867,52.384H-53.357l-8.467,39.582H-89.59l27.569-129.58Zm-13.389,68.137c18.706,0,31.311-9.453,31.311-27.766,0-10.044-5.512-16.344-20.088-16.344H-39.375l-9.453,44.11Z" transform="translate(89.59 -215.411)" fill="#fff"/>
      <path id="Path_58" data-name="Path 58" d="M140.012,294.97l-10.437,50.021H101.808l27.374-129.58H217.6l-5.119,24.616H151.828l-7.089,33.281h51.6l-4.727,21.663Z" transform="translate(12.216 -215.411)" fill="#fff"/>
      <path id="Path_59" data-name="Path 59" d="M312.295,289.458l-6.7,31.507h64.4l-5.12,24.026H272.711l27.569-129.58H388.9l-5.119,24.222h-60.85l-6.1,28.556H369.4l-4.528,21.268Z" transform="translate(-56.872 -215.411)" fill="#fff"/>
    </g>
  </g>
</svg>
