<svg xmlns="http://www.w3.org/2000/svg" width="421" height="420" viewBox="0 0 421 420">
  <g id="Group_82" data-name="Group 82" transform="translate(0)">
    <rect id="Rectangle_12" data-name="Rectangle 12" width="421" height="420" transform="translate(0)" fill="#ef3e45"/>
    <g id="Group_17" data-name="Group 17" transform="translate(43.407 144.545)">
      <path id="Path_57" data-name="Path 57" d="M949.265,453.371c29.17,0,45.924,12.416,45.924,37.645,0,32.126-22.47,52.428-59.919,52.428H915.562l-8.474,39.617H879.3l27.593-129.691Zm-13.4,68.2c18.723,0,31.338-9.461,31.338-27.79,0-10.052-5.517-16.358-20.1-16.358H929.556L920.1,521.566Z" transform="translate(-879.296 -453.371)" fill="#fff"/>
      <path id="Path_58" data-name="Path 58" d="M978.328,533l-10.445,50.063H940.091l27.4-129.691h88.5l-5.123,24.636H990.154l-7.1,33.309H1034.7L1029.968,533Z" transform="translate(-825.966 -453.371)" fill="#fff"/>
      <path id="Path_59" data-name="Path 59" d="M1033.992,527.481l-6.7,31.533h64.452l-5.125,24.047H994.374l27.593-129.691h88.694l-5.123,24.242h-60.9l-6.108,28.58h52.624l-4.534,21.288Z" transform="translate(-778.349 -453.371)" fill="#fff"/>
    </g>
  </g>
</svg>
